<svg width="27" height="27" viewBox="0 0 27 27" fill="none" xmlns="http://www.w3.org/2000/svg">
<g filter="url(#filter0_i_21_1800)">
<rect width="26.9305" height="26.9305" rx="13.4653" fill="#7721D6"/>
<g clip-path="url(#clip0_21_1800)">
<path d="M10.9768 16.4633V8.62898H14.0677C14.6594 8.62898 15.1643 8.73481 15.5826 8.94648C16.0034 9.1556 16.3234 9.45271 16.5427 9.83779C16.7646 10.2203 16.8756 10.6704 16.8756 11.1881C16.8756 11.7084 16.7633 12.156 16.5389 12.5308C16.3145 12.9032 15.9893 13.1888 15.5635 13.3877C15.1401 13.5866 14.6275 13.6861 14.0257 13.6861H11.9561V12.3549H13.7579C14.0741 12.3549 14.3368 12.3115 14.5459 12.2248C14.755 12.1381 14.9106 12.008 15.0126 11.8346C15.1172 11.6612 15.1694 11.4457 15.1694 11.1881C15.1694 10.928 15.1172 10.7087 15.0126 10.5302C14.9106 10.3517 14.7538 10.2165 14.5421 10.1247C14.333 10.0303 14.069 9.98316 13.7502 9.98316H12.6332V16.4633H10.9768ZM15.2077 12.8981L17.1548 16.4633H15.3263L13.4213 12.8981H15.2077Z" fill="white"/>
</g>
</g>
<defs>
<filter id="filter0_i_21_1800" x="0" y="0" width="26.9307" height="26.9305" filterUnits="userSpaceOnUse" color-interpolation-filters="sRGB">
<feFlood flood-opacity="0" result="BackgroundImageFix"/>
<feBlend mode="normal" in="SourceGraphic" in2="BackgroundImageFix" result="shape"/>
<feColorMatrix in="SourceAlpha" type="matrix" values="0 0 0 0 0 0 0 0 0 0 0 0 0 0 0 0 0 0 127 0" result="hardAlpha"/>
<feOffset/>
<feGaussianBlur stdDeviation="2.47389"/>
<feComposite in2="hardAlpha" operator="arithmetic" k2="-1" k3="1"/>
<feColorMatrix type="matrix" values="0 0 0 0 0 0 0 0 0 0 0 0 0 0 0 0 0 0 0.7 0"/>
<feBlend mode="normal" in2="shape" result="effect1_innerShadow_21_1800"/>
</filter>
<clipPath id="clip0_21_1800">
<rect width="26.9305" height="26.9305" fill="white"/>
</clipPath>
</defs>
</svg>
