<svg width="194" height="194" viewBox="0 0 194 194" fill="none" xmlns="http://www.w3.org/2000/svg">
<g clip-path="url(#clip0_24_1866)">
<g filter="url(#filter0_di_24_1866)">
<path d="M73.0739 174.115C80.8339 176.459 88.6747 177.833 97.0006 177.833C118.439 177.833 138.999 169.317 154.158 154.158C169.318 138.998 177.834 118.438 177.834 96.9997C177.834 86.3845 175.743 75.8733 171.681 66.0661C167.619 56.259 161.664 47.348 154.158 39.8419C146.652 32.3358 137.741 26.3817 127.934 22.3195C118.127 18.2572 107.616 16.1664 97.0006 16.1664C86.3854 16.1664 75.8741 18.2572 66.067 22.3195C56.2598 26.3817 47.3488 32.3358 39.8428 39.8419C24.6836 55.0011 16.1672 75.5614 16.1672 96.9997C16.1672 131.354 37.7497 160.858 68.2239 172.498C67.4964 166.193 66.7689 155.766 68.2239 148.571L77.5197 108.64C77.5197 108.64 75.1756 103.951 75.1756 96.5147C75.1756 85.3597 82.1272 77.0339 90.0489 77.0339C97.0006 77.0339 100.234 82.1264 100.234 88.6739C100.234 95.6255 95.6264 105.568 93.2822 115.106C91.9081 123.028 97.4856 129.98 105.569 129.98C119.957 129.98 131.112 114.621 131.112 92.958C131.112 73.558 117.209 60.3014 97.2431 60.3014C74.4481 60.3014 61.0297 77.2764 61.0297 95.1405C61.0297 102.092 63.2931 109.125 67.0114 113.732C67.7389 114.217 67.7389 114.864 67.4964 116.076L65.1522 124.887C65.1522 126.261 64.2631 126.746 62.8889 125.776C52.5422 121.25 46.5606 106.538 46.5606 94.6555C46.5606 69.1122 64.6672 45.913 99.5872 45.913C127.394 45.913 149.057 65.8789 149.057 92.3922C149.057 120.199 131.84 142.509 107.186 142.509C99.3447 142.509 91.6656 138.306 88.9172 133.375L83.5014 152.532C81.6422 159.484 76.5497 168.78 73.0739 174.357V174.115Z" fill="white"/>
</g>
</g>
<defs>
<filter id="filter0_di_24_1866" x="-4.25382" y="-4.25467" width="202.509" height="202.509" filterUnits="userSpaceOnUse" color-interpolation-filters="sRGB">
<feFlood flood-opacity="0" result="BackgroundImageFix"/>
<feColorMatrix in="SourceAlpha" type="matrix" values="0 0 0 0 0 0 0 0 0 0 0 0 0 0 0 0 0 0 127 0" result="hardAlpha"/>
<feOffset/>
<feGaussianBlur stdDeviation="10.2105"/>
<feComposite in2="hardAlpha" operator="out"/>
<feColorMatrix type="matrix" values="0 0 0 0 0.592157 0 0 0 0 0.278431 0 0 0 0 1 0 0 0 0.4 0"/>
<feBlend mode="normal" in2="BackgroundImageFix" result="effect1_dropShadow_24_1866"/>
<feBlend mode="normal" in="SourceGraphic" in2="effect1_dropShadow_24_1866" result="shape"/>
<feColorMatrix in="SourceAlpha" type="matrix" values="0 0 0 0 0 0 0 0 0 0 0 0 0 0 0 0 0 0 127 0" result="hardAlpha"/>
<feOffset/>
<feGaussianBlur stdDeviation="14.8053"/>
<feComposite in2="hardAlpha" operator="arithmetic" k2="-1" k3="1"/>
<feColorMatrix type="matrix" values="0 0 0 0 0.466667 0 0 0 0 0.129412 0 0 0 0 0.839216 0 0 0 0.46 0"/>
<feBlend mode="normal" in2="shape" result="effect2_innerShadow_24_1866"/>
</filter>
<clipPath id="clip0_24_1866">
<rect width="194" height="194" fill="white"/>
</clipPath>
</defs>
</svg>
