<svg width="23" height="22" viewBox="0 0 23 22" fill="none" xmlns="http://www.w3.org/2000/svg">
<g clip-path="url(#clip0_21_1797)">
<path d="M16.8411 11.4982C16.6624 11.4982 16.4854 11.4629 16.3203 11.3944C16.1551 11.326 16.0051 11.2257 15.8787 11.0992C15.7524 10.9728 15.6522 10.8227 15.5838 10.6575C15.5155 10.4924 15.4803 10.3153 15.4804 10.1366C15.4804 9.95783 15.5157 9.78084 15.5842 9.61571C15.6526 9.45059 15.7529 9.30057 15.8794 9.17421C16.0058 9.04785 16.1559 8.94764 16.3211 8.87929C16.4863 8.81094 16.6633 8.77579 16.842 8.77585C17.203 8.77597 17.5492 8.91949 17.8044 9.17485C18.0596 9.43021 18.2029 9.77648 18.2028 10.1375C18.2026 10.4985 18.0591 10.8447 17.8038 11.0999C17.5484 11.3551 17.2021 11.4983 16.8411 11.4982ZM11.3982 11.4982C11.0372 11.4981 10.691 11.3546 10.4358 11.0992C10.1806 10.8439 10.0373 10.4976 10.0374 10.1366C10.0376 9.77557 10.1811 9.4294 10.4364 9.17421C10.6918 8.91902 11.0381 8.77573 11.3991 8.77585C11.7601 8.77597 12.1063 8.91949 12.3615 9.17485C12.6166 9.43021 12.7599 9.77648 12.7598 10.1375C12.7597 10.4985 12.6162 10.8447 12.3608 11.0999C12.1055 11.3551 11.7592 11.4983 11.3982 11.4982ZM5.95522 11.4982C5.59421 11.4981 5.24804 11.3546 4.99285 11.0992C4.73766 10.8439 4.59437 10.4976 4.59449 10.1366C4.59461 9.77557 4.73813 9.4294 4.99349 9.17421C5.24885 8.91902 5.59512 8.77573 5.95613 8.77585C6.31714 8.77597 6.66332 8.91949 6.91851 9.17485C7.17369 9.43021 7.31699 9.77648 7.31687 10.1375C7.31675 10.4985 7.17322 10.8447 6.91786 11.0999C6.66251 11.3551 6.31623 11.4983 5.95522 11.4982ZM11.3982 0.158752C5.88719 0.158752 1.41943 4.62651 1.41943 10.1375C1.41943 12.5442 2.27216 14.7513 3.69096 16.4749L2.32659 21.9305L7.16719 19.1646C8.49002 19.7901 9.9349 20.1151 11.3982 20.1162C16.9092 20.1162 21.3769 15.6485 21.3769 10.1375C21.3769 4.62651 16.9092 0.158752 11.3982 0.158752Z" fill="white"/>
</g>
<defs>
<clipPath id="clip0_21_1797">
<rect width="21.7718" height="21.7718" fill="white" transform="translate(0.512207 0.158752)"/>
</clipPath>
</defs>
</svg>
