<svg width="16" height="16" viewBox="0 0 16 16" fill="none" xmlns="http://www.w3.org/2000/svg">
<path d="M6.91881 10.4637C4.91702 10.4637 3.29018 8.8369 3.29018 6.8351C3.29018 4.83331 4.91702 3.20647 6.91881 3.20647C8.92061 3.20647 10.5474 4.83331 10.5474 6.8351C10.5474 8.8369 8.92061 10.4637 6.91881 10.4637ZM14.8534 12.2055L12.2771 9.62915C12.732 8.76822 12.9687 7.80883 12.9665 6.8351C12.9665 3.49676 10.2572 0.787384 6.91881 0.787384C3.58047 0.787384 0.871094 3.49676 0.871094 6.8351C0.871094 10.1734 3.58047 12.8828 6.91881 12.8828C7.92878 12.8828 8.87827 12.6349 9.71286 12.1934L12.2892 14.7697C12.6294 15.1095 13.0905 15.3003 13.5713 15.3003C14.0521 15.3003 14.5132 15.1095 14.8534 14.7697C15.1932 14.4295 15.384 13.9684 15.384 13.4876C15.384 13.0068 15.1932 12.5457 14.8534 12.2055Z" fill="#CE3261"/>
</svg>
